<svg width="127" height="122" viewBox="0 0 127 122" fill="none" xmlns="http://www.w3.org/2000/svg">
<g filter="url(#filter0_d_1_3)">
<path fill-rule="evenodd" clip-rule="evenodd" d="M6 66.9754C6 66.6172 6.06747 66.2688 6.19327 65.9458L6.44939 65.4429C6.69931 65.0536 7.04488 64.7248 7.46414 64.4939L33.1402 50.3499C33.987 49.8834 35.013 49.8834 35.8598 50.3499L61.5359 64.4939C61.8583 64.6715 62.1371 64.9069 62.3623 65.1832L62.6748 65.6562C62.8848 66.0561 63 66.5073 63 66.9754V95.0246C63 96.0577 62.4389 97.0087 61.5359 97.5061L35.8598 111.65C35.013 112.117 33.987 112.117 33.1402 111.65L7.46414 97.5061C6.56113 97.0087 6 96.0577 6 95.0246V66.9754ZM35.5878 50.8462L61.2639 64.9902C61.4873 65.1132 61.6845 65.271 61.8504 65.4546L34.161 80.1357L6.95096 65.7088C7.14853 65.4151 7.41535 65.1669 7.73609 64.9902L33.4122 50.8462C34.0896 50.473 34.9104 50.473 35.5878 50.8462ZM34.4603 80.6157L34.7607 111.439C36.6947 110.305 34.3115 111.687 34.7607 111.439L61.2639 97.0098C61.9863 96.6119 62.4352 95.8511 62.4352 95.0246V66.9754C62.4352 66.6013 62.3432 66.2406 62.1755 65.921L34.4603 80.6157ZM34.2388 111.439L33.8953 80.6335L6.69665 66.2127C6.61065 66.4538 6.56479 66.7112 6.56479 66.9754V95.0246C6.56479 95.8511 7.01369 96.6119 7.7361 97.0098L33.4122 111.154C33.4646 111.183 34.1848 111.415 34.2388 111.439Z" fill="#26A69A"/>
<path d="M34.7607 111.439L34.4603 80.6157L62.1755 65.921C62.3432 66.2406 62.4352 66.6013 62.4352 66.9754V95.0246C62.4352 95.8511 61.9863 96.6119 61.2639 97.0098L34.7607 111.439ZM34.7607 111.439C34.3115 111.687 36.6947 110.305 34.7607 111.439ZM61.2639 64.9902L35.5878 50.8462C34.9104 50.473 34.0896 50.473 33.4122 50.8462L7.73609 64.9902C7.41535 65.1669 7.14853 65.4151 6.95096 65.7088L34.161 80.1357L61.8504 65.4546C61.6845 65.271 61.4873 65.1132 61.2639 64.9902ZM34.2388 111.439L33.8953 80.6335L6.69665 66.2127C6.61065 66.4538 6.56479 66.7112 6.56479 66.9754V95.0246C6.56479 95.8511 7.01369 96.6119 7.7361 97.0098L33.4122 111.154C33.4646 111.183 34.1848 111.415 34.2388 111.439ZM6.19327 65.9458C6.06747 66.2688 6 66.6172 6 66.9754V95.0246C6 96.0577 6.56113 97.0087 7.46414 97.5061L33.1402 111.65C33.987 112.117 35.013 112.117 35.8598 111.65L61.5359 97.5061C62.4389 97.0087 63 96.0577 63 95.0246V66.9754C63 66.5073 62.8848 66.0561 62.6748 65.6562L62.3623 65.1832C62.1371 64.9069 61.8583 64.6715 61.5359 64.4939L35.8598 50.3499C35.013 49.8834 33.987 49.8834 33.1402 50.3499L7.46414 64.4939C7.04488 64.7248 6.69931 65.0536 6.44939 65.4429L6.19327 65.9458Z" stroke="#7743DB" stroke-width="3"/>
</g>
<g filter="url(#filter1_d_1_3)">
<path fill-rule="evenodd" clip-rule="evenodd" d="M36 18.9754C36 18.6172 36.0663 18.2688 36.1899 17.9458L36.4415 17.4429C36.687 17.0536 37.0265 16.7248 37.4385 16.4939L62.6641 2.34987C63.496 1.88338 64.504 1.88338 65.3359 2.34987L90.5615 16.4939C90.8783 16.6715 91.1522 16.9069 91.3735 17.1832L91.6805 17.6562C91.8868 18.0561 92 18.5073 92 18.9754V47.0246C92 48.0577 91.4487 49.0087 90.5615 49.5061L65.3359 63.6501C64.504 64.1166 63.496 64.1166 62.6641 63.6501L37.4385 49.5061C36.5513 49.0087 36 48.0577 36 47.0246V18.9754ZM65.0687 2.84617L90.2944 16.9902C90.5138 17.1132 90.7076 17.271 90.8706 17.4546L63.6669 32.1357L36.9343 17.7088C37.1284 17.4151 37.3905 17.1669 37.7056 16.9902L62.9313 2.84617C63.5968 2.47298 64.4032 2.47298 65.0687 2.84617ZM63.961 32.6157L64.2562 63.4393C66.1562 62.3045 63.8148 63.6867 64.2562 63.4393L90.2944 49.0098C91.0041 48.6119 91.4451 47.8511 91.4451 47.0246V18.9754C91.4451 18.6013 91.3547 18.2406 91.19 17.921L63.961 32.6157ZM63.7433 63.4393L63.4059 32.6335L36.6844 18.2127C36.5999 18.4538 36.5549 18.7112 36.5549 18.9754V47.0246C36.5549 47.8511 36.9959 48.6119 37.7056 49.0098L62.9313 63.1538C62.9827 63.1827 63.6903 63.4149 63.7433 63.4393Z" fill="#364150"/>
<path d="M64.2562 63.4393L63.961 32.6157L91.19 17.921C91.3547 18.2406 91.4451 18.6013 91.4451 18.9754V47.0246C91.4451 47.8511 91.0041 48.6119 90.2944 49.0098L64.2562 63.4393ZM64.2562 63.4393C63.8148 63.6867 66.1562 62.3045 64.2562 63.4393ZM90.2944 16.9902L65.0687 2.84617C64.4032 2.47298 63.5968 2.47298 62.9313 2.84617L37.7056 16.9902C37.3905 17.1669 37.1284 17.4151 36.9343 17.7088L63.6669 32.1357L90.8706 17.4546C90.7076 17.271 90.5138 17.1132 90.2944 16.9902ZM63.7433 63.4393L63.4059 32.6335L36.6844 18.2127C36.5999 18.4538 36.5549 18.7112 36.5549 18.9754V47.0246C36.5549 47.8511 36.9959 48.6119 37.7056 49.0098L62.9313 63.1538C62.9827 63.1827 63.6903 63.4149 63.7433 63.4393ZM36.1899 17.9458C36.0663 18.2688 36 18.6172 36 18.9754V47.0246C36 48.0577 36.5513 49.0087 37.4385 49.5061L62.6641 63.6501C63.496 64.1166 64.504 64.1166 65.3359 63.6501L90.5615 49.5061C91.4487 49.0087 92 48.0577 92 47.0246V18.9754C92 18.5073 91.8868 18.0561 91.6805 17.6562L91.3735 17.1832C91.1522 16.9069 90.8783 16.6715 90.5615 16.4939L65.3359 2.34987C64.504 1.88338 63.496 1.88338 62.6641 2.34987L37.4385 16.4939C37.0265 16.7248 36.687 17.0536 36.4415 17.4429L36.1899 17.9458Z" stroke="black" stroke-width="3"/>
</g>
<g filter="url(#filter2_d_1_3)">
<path fill-rule="evenodd" clip-rule="evenodd" d="M64 66.9754C64 66.6172 64.0675 66.2688 64.1933 65.9458L64.4494 65.4429C64.6993 65.0536 65.0449 64.7248 65.4641 64.4939L91.1402 50.3499C91.987 49.8834 93.013 49.8834 93.8598 50.3499L119.536 64.4939C119.858 64.6715 120.137 64.9069 120.362 65.1832L120.675 65.6562C120.885 66.0561 121 66.5073 121 66.9754V95.0246C121 96.0577 120.439 97.0087 119.536 97.5061L93.8598 111.65C93.013 112.117 91.987 112.117 91.1402 111.65L65.4641 97.5061C64.5611 97.0087 64 96.0577 64 95.0246V66.9754ZM93.5878 50.8462L119.264 64.9902C119.487 65.1132 119.685 65.271 119.85 65.4546L92.161 80.1357L64.951 65.7088C65.1485 65.4151 65.4154 65.1669 65.7361 64.9902L91.4122 50.8462C92.0896 50.473 92.9104 50.473 93.5878 50.8462ZM92.4603 80.6157L92.7607 111.439C94.6947 110.305 92.3115 111.687 92.7607 111.439L119.264 97.0098C119.986 96.6119 120.435 95.8511 120.435 95.0246V66.9754C120.435 66.6013 120.343 66.2406 120.176 65.921L92.4603 80.6157ZM92.2388 111.439L91.8953 80.6335L64.6967 66.2127C64.6107 66.4538 64.5648 66.7112 64.5648 66.9754V95.0246C64.5648 95.8511 65.0137 96.6119 65.7361 97.0098L91.4122 111.154C91.4646 111.183 92.1848 111.415 92.2388 111.439Z" fill="#364150"/>
<path d="M92.7607 111.439L92.4603 80.6157L120.176 65.921C120.343 66.2406 120.435 66.6013 120.435 66.9754V95.0246C120.435 95.8511 119.986 96.6119 119.264 97.0098L92.7607 111.439ZM92.7607 111.439C92.3115 111.687 94.6947 110.305 92.7607 111.439ZM119.264 64.9902L93.5878 50.8462C92.9104 50.473 92.0896 50.473 91.4122 50.8462L65.7361 64.9902C65.4154 65.1669 65.1485 65.4151 64.951 65.7088L92.161 80.1357L119.85 65.4546C119.685 65.271 119.487 65.1132 119.264 64.9902ZM92.2388 111.439L91.8953 80.6335L64.6967 66.2127C64.6107 66.4538 64.5648 66.7112 64.5648 66.9754V95.0246C64.5648 95.8511 65.0137 96.6119 65.7361 97.0098L91.4122 111.154C91.4646 111.183 92.1848 111.415 92.2388 111.439ZM64.1933 65.9458C64.0675 66.2688 64 66.6172 64 66.9754V95.0246C64 96.0577 64.5611 97.0087 65.4641 97.5061L91.1402 111.65C91.987 112.117 93.013 112.117 93.8598 111.65L119.536 97.5061C120.439 97.0087 121 96.0577 121 95.0246V66.9754C121 66.5073 120.885 66.0561 120.675 65.6562L120.362 65.1832C120.137 64.9069 119.858 64.6715 119.536 64.4939L93.8598 50.3499C93.013 49.8834 91.987 49.8834 91.1402 50.3499L65.4641 64.4939C65.0449 64.7248 64.6993 65.0536 64.4494 65.4429L64.1933 65.9458Z" stroke="black" stroke-opacity="0.99" stroke-width="3"/>
</g>
<defs>
<filter id="filter0_d_1_3" x="0.5" y="48.5" width="68" height="73.2753" filterUnits="userSpaceOnUse" color-interpolation-filters="sRGB">
<feFlood flood-opacity="0" result="BackgroundImageFix"/>
<feColorMatrix in="SourceAlpha" type="matrix" values="0 0 0 0 0 0 0 0 0 0 0 0 0 0 0 0 0 0 127 0" result="hardAlpha"/>
<feOffset dy="4"/>
<feGaussianBlur stdDeviation="2"/>
<feColorMatrix type="matrix" values="0 0 0 0 0 0 0 0 0 0 0 0 0 0 0 0 0 0 0.25 0"/>
<feBlend mode="normal" in2="BackgroundImageFix" result="effect1_dropShadow_1_3"/>
<feBlend mode="normal" in="SourceGraphic" in2="effect1_dropShadow_1_3" result="shape"/>
</filter>
<filter id="filter1_d_1_3" x="30.5" y="0.5" width="67" height="73.2925" filterUnits="userSpaceOnUse" color-interpolation-filters="sRGB">
<feFlood flood-opacity="0" result="BackgroundImageFix"/>
<feColorMatrix in="SourceAlpha" type="matrix" values="0 0 0 0 0 0 0 0 0 0 0 0 0 0 0 0 0 0 127 0" result="hardAlpha"/>
<feOffset dy="4"/>
<feGaussianBlur stdDeviation="2"/>
<feColorMatrix type="matrix" values="0 0 0 0 0 0 0 0 0 0 0 0 0 0 0 0 0 0 0.25 0"/>
<feBlend mode="normal" in2="BackgroundImageFix" result="effect1_dropShadow_1_3"/>
<feBlend mode="normal" in="SourceGraphic" in2="effect1_dropShadow_1_3" result="shape"/>
</filter>
<filter id="filter2_d_1_3" x="58.5" y="48.5" width="68" height="73.2753" filterUnits="userSpaceOnUse" color-interpolation-filters="sRGB">
<feFlood flood-opacity="0" result="BackgroundImageFix"/>
<feColorMatrix in="SourceAlpha" type="matrix" values="0 0 0 0 0 0 0 0 0 0 0 0 0 0 0 0 0 0 127 0" result="hardAlpha"/>
<feOffset dy="4"/>
<feGaussianBlur stdDeviation="2"/>
<feColorMatrix type="matrix" values="0 0 0 0 0 0 0 0 0 0 0 0 0 0 0 0 0 0 0.25 0"/>
<feBlend mode="normal" in2="BackgroundImageFix" result="effect1_dropShadow_1_3"/>
<feBlend mode="normal" in="SourceGraphic" in2="effect1_dropShadow_1_3" result="shape"/>
</filter>
</defs>
</svg>
